<?xml version="1.0" ?><svg style="enable-background:new 0 0 512 512;" version="1.1" viewBox="0 0 512 512" xml:space="preserve" xmlns="http://www.w3.org/2000/svg" xmlns:xlink="http://www.w3.org/1999/xlink"><style type="text/css">
	.st0{display:none;fill:#FEFEFE;}
	.st1{fill:#7143B9;}
	.st2{fill:#FFFFFF;}
</style><g id="Layer_1"/><g id="Layer_2"><g><path class="st0" d="M512.4,512.4c-170.7,0-341.3,0-512,0c0-170.7,0-341.3,0-512c170.7,0,341.3,0,512,0    C512.4,171.1,512.4,341.8,512.4,512.4z"/><path class="st1" d="M172,401.3c0.1-10.3,0.3-20.6,0.4-30.9c0-2.4,0.3-2.1-2-3.1c-12.8-5.1-24.7-11.5-35.2-20.5    c-11.1-9.5-19.8-20.7-26.2-33.8c-6.1-12.6-9.5-26-11.4-39.8c-0.7-5.4-1.1-10.8-1.1-16.2c0-5.1-0.8-10.2-0.9-15.3    c-0.1-3.6-0.2-7.3-0.1-10.9c0.1-7.4-0.6-14.8-0.3-22.2c0.6-16.8,3.6-33.2,10.2-48.8c9.4-22.2,24.8-39,45.8-50.8    c15.8-8.8,32.6-14.4,50.4-17.3c11-1.8,22-2.8,33.1-3.1c13.2-0.4,26.4-0.3,39.7-0.1c17,0.2,33.8,1.8,50.3,5.8    c15.7,3.7,30.5,9.6,44.1,18.3c16.5,10.5,29.1,24.4,37.6,42.1c5.3,10.9,8.5,22.4,10.6,34.3c1.5,8.8,2.1,17.6,2,26.5    c-0.1,9.4-0.3,18.8-0.9,28.1c-0.4,6.4-0.4,12.8-0.7,19.2c-1.1,17.7-4.7,34.8-12.5,50.8c-9.6,19.6-24.1,34.4-43.1,45.1    c-15.7,8.8-32.5,14.3-50.1,17.3c-13.8,2.3-27.8,3.4-41.8,3.4c-8.6,0-17.2-0.1-25.8,0c-4.4,0-8.8,0.1-13.2-0.4    c-1.4-0.1-2.4,0.3-3.3,1.4c-6.9,8-13.8,16-20.8,24c-8.6,9.9-17.2,19.8-25.7,29.6c-0.9,1-1.9,2-3,2.7c-2.7,1.8-5.5,0.8-6.2-2.4    c-0.2-0.7-0.1-1.6-0.1-2.3C171.7,421.8,171.9,411.5,172,401.3C172,401.3,172,401.3,172,401.3z"/><path class="st2" d="M158.3,179.9c0.3-12.2,5.9-21.4,16-28c4.2-2.8,8.8-5,13.8-6c5.2-1.1,10.2-0.4,14.6,2.9    c2.9,2.1,5.3,4.7,7.7,7.3c8,8.8,14.8,18.3,20.3,28.9c0.9,1.8,1.7,3.7,2.3,5.7c1.7,5.7,0.4,10.7-3.4,15.1c-1.4,1.6-3,3-4.7,4.3    c-1.6,1.1-3.2,2.3-4.7,3.7c-3.5,3.3-4.5,7.3-3.4,11.9c0.4,1.9,1.1,3.7,1.8,5.4c4.1,9,9.6,17.1,16.7,24.1    c4.2,4.1,8.7,7.7,13.7,10.8c4.8,3,9.6,5.8,15,7.7c5,1.8,8.8,0.7,12.1-3.5c1.4-1.8,2.6-3.7,4.2-5.4c3-3.2,6.4-5.6,10.7-6.6    c4.7-1.1,9.2-0.3,13.5,1.6c4.1,1.7,7.7,4.3,11.3,6.8c7.2,5,14.2,10.3,21,15.8c1.8,1.5,3.4,3.2,4.9,5.1c3.5,4.6,4.2,9.7,2.7,15.1    c-1.4,5.2-4,9.7-7.4,13.8c-5.9,7.2-13.1,12.6-22,15.5c-2.4,0.8-4.8,1.3-7.3,1.5c-3.2,0.3-6.2-0.8-9.2-1.7    c-2.9-0.8-5.6-2.2-8.3-3.4c-13.5-6-26.5-13.1-38.8-21.3c-18.5-12.3-35-26.7-49.4-43.6c-10.7-12.6-20-26.2-27.9-40.8    c-5.1-9.3-9.6-18.9-13.4-28.8C159.2,189.5,158.3,184,158.3,179.9z"/><path class="st2" d="M350.9,220.6c-0.1,3.3,0.3,5.7,0,8c-0.7,5.7-5.7,8.7-11,6.5c-3.2-1.3-4.2-4.1-4.5-7.2    c-0.3-3.8-0.6-7.6-1.2-11.4c-2-11.7-5.2-23-11.5-33.2c-4.7-7.6-10.8-13.8-18.4-18.7c-8.8-5.7-18.6-9-28.8-11.3    c-4.4-1-8.9-1.8-13.4-2.2c-1.1-0.1-2.1-0.3-3.1-0.7c-3.1-1.1-4.7-3.4-4.5-6.7c0.4-5.8,3.7-8.1,8.2-8.1c17.1-0.3,32.7,4.2,47,13.5    c8.4,5.5,15.9,12,22.1,19.9C343.8,184.3,350.8,201.7,350.9,220.6z"/><path class="st2" d="M325,218.8c-0.1,1.7,0.2,3.9-0.3,6.1c-0.7,3.7-3.3,5.8-7.2,5.9c-4.1,0.1-6.7-1.7-7.6-5.4    c-0.4-1.4-0.4-2.9-0.6-4.4c-0.7-6.7-2.3-13.3-4.9-19.6c-3.6-9-10.1-15.1-19-18.9c-6.2-2.6-12.6-4.5-19.2-5.5    c-1.8-0.3-3.5-0.7-5.1-1.5c-0.8-0.4-1.5-0.9-2-1.6c-2.2-2.7-2.1-5.6-0.9-8.6c1-2.7,3.1-4.2,6-4.5c2.4-0.3,4.8,0.1,7.2,0.5    c6.7,1,13.2,2.7,19.4,5.6c7.9,3.8,14.7,9.1,20.5,15.7c4.9,5.7,8.6,12,11,19.1C324,207.2,324.9,212.7,325,218.8z"/><path class="st2" d="M300.1,216.9c0,2,0,4-0.7,5.9c-1,2.9-3.1,4.6-6.1,5c-3.1,0.4-5.6-0.7-7.3-3.3c-0.9-1.3-1.3-2.7-1.5-4.2    c-0.4-2.5-0.7-5.1-1.7-7.4c-2.1-5.1-6.1-8.1-11.3-9.5c-1-0.3-2.1-0.5-3.1-0.7c-0.8-0.2-1.7-0.4-2.5-0.6c-3.7-1.1-5.6-3.4-5.6-6.6    c0-3.8,2.1-6.9,5.6-7.9c3.4-1,6.9-0.8,10.3,0.1c8.1,2.3,14.1,7.4,18.8,14.2C298.1,206.3,300.1,211.3,300.1,216.9z"/></g></g></svg>